<svg xmlns="http://www.w3.org/2000/svg" viewBox="0 0 900 1080" role="img" aria-labelledby="title desc">
  <title id="title">Gapwise for Android</title>
  <desc id="desc">The blue Gapwise deer mark inside a rounded mobile app icon frame, with Android beneath it.</desc>

  <rect x="105" y="70" width="690" height="690" rx="145" fill="#05080c" stroke="#4EA7FE" stroke-width="28"/>

  <svg x="175" y="135" width="550" height="550" viewBox="350 315 554 554" aria-hidden="true">
    <defs>
      <path id="upper-left" d="M627 638 540 534c-21-19-47-32-75-49-47-29-68-77-68-132h31c2 32 13 63 34 87 6 6 12 12 20 18-3-14-3-27-1-39 2-13 6-24 12-33l25 13c-7 15-10 30-8 42 1 17 7 29 15 37 7 8 13 12 19 15l83 37Z"/>
      <path id="lower-left" d="M627 692 522 558c-18-19-40-33-59-39-15-1-31-1-48-1 0 30 11 56 36 76 17 12 35 16 74 16v120c0 8 3 14 8 20l72 100c5 7 12 10 22 10Z"/>
    </defs>
    <g fill="#4EA7FE">
      <use href="#upper-left"/>
      <use href="#upper-left" transform="translate(1254 0) scale(-1 1)"/>
      <use href="#lower-left"/>
      <use href="#lower-left" transform="translate(1254 0) scale(-1 1)"/>
    </g>
  </svg>

  <g fill="#4EA7FE" transform="translate(145.025 944.525) scale(0.160471 -0.160471)">
    <path d="M324 778Q207 778 139 721Q71 664 71 555Q71 448 139 391Q207 334 324 334Q384 334 428 349Q472 364 502 393Q532 422 547 464Q562 506 562 558V776H448V713Q414 745 384 761Q354 778 324 778ZM349 690Q385 690 415 674Q445 658 448 646V560Q448 490 419 455Q390 420 332 420Q273 420 241 456Q209 492 209 559Q209 623 243 656Q277 690 349 690Z"/><path d="M644 776V347H758V405Q787 372 825 353Q863 334 910 334Q980 334 1018 376Q1056 418 1056 496V776H942V520Q942 475 921 456Q900 437 862 437Q831 437 805 452Q779 467 758 492V776Z"/><path d="M1376 776H1262V719Q1234 749 1198 764Q1162 779 1122 779Q1022 779 965 722Q908 665 908 556Q908 447 966 390Q1024 333 1124 333Q1162 333 1196 347Q1230 361 1262 390V164H1376ZM1262 476Q1239 455 1215 445Q1191 435 1163 435Q1109 435 1082 466Q1055 497 1055 556Q1055 615 1082 646Q1109 677 1163 677Q1191 677 1215 667Q1239 657 1262 636Z"/><path d="M1461 776V347H1575V415Q1595 376 1628 355Q1661 334 1706 334Q1731 334 1747 338L1735 448Q1717 443 1698 443Q1657 443 1626 462Q1595 481 1575 514V776Z"/><path d="M1948 779Q1837 779 1774 721Q1711 663 1711 556Q1711 449 1774 391Q1837 333 1948 333Q2059 333 2122 391Q2185 449 2185 556Q2185 663 2122 721Q2059 779 1948 779ZM1948 687Q2004 687 2028 654Q2052 621 2052 556Q2052 491 2028 458Q2004 425 1948 425Q1892 425 1868 458Q1844 491 1844 556Q1844 621 1868 654Q1892 687 1948 687Z"/><path d="M2289 286Q2257 286 2236 267Q2215 248 2215 219Q2215 190 2236 171Q2257 152 2289 152Q2321 152 2342 171Q2363 190 2363 219Q2363 248 2342 267Q2321 286 2289 286ZM2232 776V347H2346V776Z"/><path d="M2811 776H2697V719Q2669 749 2633 764Q2597 779 2557 779Q2457 779 2400 722Q2343 665 2343 556Q2343 447 2401 390Q2459 333 2559 333Q2597 333 2631 347Q2665 361 2697 390V164H2811ZM2697 476Q2674 455 2650 445Q2626 435 2598 435Q2544 435 2517 466Q2490 497 2490 556Q2490 615 2517 646Q2544 677 2598 677Q2626 677 2650 667Q2674 657 2697 636Z"/>
  </g>
</svg>
